<?xml version="1.0" encoding="UTF-8"?>
<svg xmlns="http://www.w3.org/2000/svg" width="86.695" height="52" viewBox="0 0 86.695 52">
  <path id="Path_1" data-name="Path 1" d="M1.739,12a1.768,1.768,0,0,0-1.517.867,1.741,1.741,0,0,0,0,1.733L11.544,34.425l9.1-15.871-2.492-4.171A5.021,5.021,0,0,0,13.873,12Zm27.679,0a1.745,1.745,0,0,0-1.517.867L13.981,37.133a1.758,1.758,0,0,0,0,1.733L25.41,58.8A10.4,10.4,0,0,0,34.4,64h4.117l7.637-13.867H36.514L29.689,38l14.9-26Zm19.175,0L40.631,25.867h9.533l6.771,12.079L57.1,38,42.473,64H57.206a1.745,1.745,0,0,0,1.517-.867L72.644,38.867a1.741,1.741,0,0,0,0-1.733L61.214,17.2A10.388,10.388,0,0,0,52.223,12ZM75.135,41.521l-9.1,15.871,2.492,4.171a5.03,5.03,0,0,0,4.279,2.383H84.939a1.768,1.768,0,0,0,1.517-.867,1.741,1.741,0,0,0,0-1.733Z" transform="translate(0.008 -12)" fill="#fff" />
</svg>